<svg width="37" height="25" viewBox="0 0 37 25" fill="none" xmlns="http://www.w3.org/2000/svg">
<mask id="mask0_1_9" style="mask-type:luminance" maskUnits="userSpaceOnUse" x="0" y="0" width="37" height="25">
<path d="M36.6172 0H0V24.7414H36.6172V0Z" fill="white"/>
</mask>
<g mask="url(#mask0_1_9)">
<path d="M1.54076 13.1436L1.52943 13.1556C1.53376 13.1521 1.53757 13.1481 1.54076 13.1436Z" fill="#6054FE"/>
<path d="M20.4793 1.45959C19.5256 0.52527 18.2325 0.000442505 16.8843 0.000442505C15.5361 0.000442505 14.243 0.52527 13.2893 1.45959L7.16758 7.46164L6.81655 7.80271L2.73235 11.9421C4.00091 10.9452 5.60016 10.4423 7.22352 10.53C8.84685 10.6177 10.3801 11.2897 11.5293 12.4173L16.8501 17.6341L22.075 22.7568C23.2634 23.9218 24.8751 24.5762 26.5556 24.5762C28.2361 24.5762 29.8479 23.9218 31.0363 22.7568L36.6244 17.2779L20.4793 1.45959Z" fill="#7878F9"/>
<path d="M2.20456 12.4117C3.44273 11.1977 5.12205 10.5157 6.87309 10.5157C8.62412 10.5157 10.3035 11.1977 11.5416 12.4117L16.8623 17.6283L11.5409 22.8457C10.3027 24.0594 8.62345 24.7411 6.87261 24.741C5.12172 24.7408 3.44261 24.0588 2.20456 22.845C0.793416 21.4615 0.000640869 19.585 0.000640869 17.6283C0.000640869 15.6717 0.793416 13.7952 2.20456 12.4117Z" fill="#F277EF"/>
</g>
</svg>
