<svg width="100" height="17" viewBox="0 0 100 17" fill="none" xmlns="http://www.w3.org/2000/svg">
<path d="M4.69295 5.22758C5.51689 5.22758 6.22492 5.41423 6.81709 5.78758C7.40931 6.16094 7.84699 6.6694 8.13019 7.3131V5.36276H11.4129V16.1379H8.13019V14.1876C7.84699 14.8313 7.40931 15.3397 6.81709 15.7131C6.22492 16.0865 5.51689 16.2731 4.69295 16.2731C3.80467 16.2731 3.00655 16.0542 2.29846 15.6166C1.60329 15.166 1.04975 14.5223 0.637773 13.6855C0.238712 12.8487 0.0391541 11.8703 0.0391541 10.7503C0.0391541 9.61749 0.238712 8.63906 0.637773 7.81517C1.04975 6.97837 1.60329 6.34113 2.29846 5.90345C3.00655 5.45285 3.80467 5.22758 4.69295 5.22758ZM5.75502 8.12414C5.04699 8.12414 4.47414 8.35586 4.0364 8.81931C3.61157 9.28276 3.39915 9.92646 3.39915 10.7503C3.39915 11.5742 3.61157 12.2179 4.0364 12.6814C4.47414 13.1448 5.04699 13.3765 5.75502 13.3765C6.45019 13.3765 7.01665 13.1384 7.45433 12.6621C7.90492 12.1858 8.13019 11.5485 8.13019 10.7503C8.13019 9.93931 7.90492 9.30207 7.45433 8.83862C7.01665 8.36232 6.45019 8.12414 5.75502 8.12414ZM16.9885 1.84827V16.1379H13.6864V1.84827H16.9885ZM18.9594 2.33103C18.9594 1.82896 19.1396 1.41699 19.5001 1.09517C19.8606 0.760438 20.3369 0.593102 20.929 0.593102C21.5209 0.593102 21.9977 0.760438 22.3579 1.09517C22.7182 1.41699 22.8986 1.82896 22.8986 2.33103C22.8986 2.82025 22.7182 3.23216 22.3579 3.56689C21.9977 3.88871 21.5209 4.04965 20.929 4.04965C20.3369 4.04965 19.8606 3.88871 19.5001 3.56689C19.1396 3.23216 18.9594 2.82025 18.9594 2.33103ZM22.5703 5.36276V16.1379H19.2683V5.36276H22.5703Z" fill="#7747FF"/>
<path d="M30.9523 13.2993V16.1379H29.4654C28.2035 16.1379 27.2187 15.829 26.5109 15.211C25.8157 14.5802 25.4681 13.5439 25.4681 12.1021V8.14345H24.0198V5.36276H25.4681V2.71724H28.7702V5.36276H30.9329V8.14345H28.7702V12.16C28.7702 12.5848 28.8541 12.8809 29.0212 13.0483C29.2016 13.2156 29.4973 13.2993 29.9095 13.2993H30.9523ZM39.6443 5.24689C40.8802 5.24689 41.8584 5.65887 42.5795 6.48276C43.3133 7.30665 43.6802 8.43956 43.6802 9.88138V16.1379H40.3781V10.2676C40.3781 9.54664 40.185 8.98665 39.7988 8.58759C39.4253 8.17561 38.9232 7.96965 38.2926 7.96965C37.6228 7.96965 37.0887 8.18207 36.6898 8.6069C36.3036 9.03172 36.1105 9.6368 36.1105 10.4221V16.1379H32.8085V1.84827H36.1105V7.33241C36.4195 6.68871 36.8763 6.18025 37.4816 5.80689C38.0995 5.43354 38.82 5.24689 39.6443 5.24689ZM56.0925 10.4607C56.0925 10.731 56.0599 11.0271 55.996 11.349H48.5229C48.5615 12.16 48.7673 12.7458 49.1408 13.1062C49.5137 13.4538 49.9904 13.6276 50.5698 13.6276C51.0586 13.6276 51.4641 13.5053 51.7863 13.2607C52.1079 13.0161 52.3204 12.7007 52.4235 12.3145H55.9187C55.7769 13.074 55.4679 13.7563 54.9918 14.3614C54.5151 14.9535 53.9104 15.4234 53.1767 15.771C52.4429 16.1058 51.6252 16.2731 50.7242 16.2731C49.6682 16.2731 48.7286 16.0542 47.9049 15.6166C47.0939 15.166 46.4567 14.5223 45.9932 13.6855C45.5298 12.8487 45.298 11.8703 45.298 10.7503C45.298 9.61749 45.5231 8.63906 45.9739 7.81517C46.4373 6.97837 47.0806 6.34113 47.9049 5.90345C48.7286 5.45285 49.6682 5.22758 50.7242 5.22758C51.7923 5.22758 52.7325 5.44646 53.5435 5.88414C54.3546 6.32182 54.9786 6.93975 55.4167 7.73793C55.8668 8.5232 56.0925 9.43078 56.0925 10.4607ZM52.7518 9.95862C52.7645 9.25059 52.5714 8.72276 52.1725 8.37517C51.7863 8.01473 51.3035 7.83448 50.7242 7.83448C50.119 7.83448 49.6169 8.01473 49.218 8.37517C48.8185 8.73561 48.5935 9.26345 48.5422 9.95862H52.7518ZM71.7749 5.24689C73.1007 5.24689 74.1435 5.65887 74.9032 6.48276C75.6629 7.29379 76.0425 8.42664 76.0425 9.88138V16.1379H72.7598V10.2676C72.7598 9.58527 72.5733 9.05749 72.1998 8.68414C71.8395 8.29793 71.3435 8.10483 70.7129 8.10483C70.0563 8.10483 69.5349 8.31078 69.1487 8.72276C68.7752 9.12182 68.5887 9.68827 68.5887 10.4221V16.1379H65.2867V10.2676C65.2867 9.58527 65.1062 9.05749 64.746 8.68414C64.3857 8.29793 63.8897 8.10483 63.2591 8.10483C62.6025 8.10483 62.0811 8.30439 61.6949 8.70345C61.3087 9.10251 61.1156 9.67542 61.1156 10.4221V16.1379H57.8136V5.36276H61.1156V7.19724C61.3986 6.59216 61.8301 6.11586 62.4094 5.76827C63.0014 5.42069 63.6905 5.24689 64.4756 5.24689C65.2993 5.24689 66.0271 5.44 66.6577 5.82621C67.2883 6.19956 67.765 6.74025 68.0867 7.44827C68.4602 6.77887 68.9683 6.24458 69.6122 5.84552C70.2687 5.44646 70.9898 5.24689 71.7749 5.24689ZM88.4711 10.4607C88.4711 10.731 88.4392 11.0271 88.3746 11.349H80.9015C80.9401 12.16 81.1459 12.7458 81.5194 13.1062C81.8929 13.4538 82.3691 13.6276 82.9484 13.6276C83.4378 13.6276 83.8433 13.5053 84.1649 13.2607C84.4866 13.0161 84.699 12.7007 84.8022 12.3145H88.2973C88.1555 13.074 87.8466 13.7563 87.3704 14.3614C86.8943 14.9535 86.2891 15.4234 85.5553 15.771C84.8215 16.1058 84.0038 16.2731 83.1029 16.2731C82.0474 16.2731 81.1073 16.0542 80.2835 15.6166C79.4725 15.166 78.8353 14.5223 78.3718 13.6855C77.9084 12.8487 77.6767 11.8703 77.6767 10.7503C77.6767 9.61749 77.9017 8.63906 78.3525 7.81517C78.816 6.97837 79.4598 6.34113 80.2835 5.90345C81.1073 5.45285 82.0474 5.22758 83.1029 5.22758C84.1716 5.22758 85.1111 5.44646 85.9222 5.88414C86.7332 6.32182 87.3578 6.93975 87.7953 7.73793C88.246 8.5232 88.4711 9.43078 88.4711 10.4607ZM85.1304 9.95862C85.1431 9.25059 84.95 8.72276 84.5511 8.37517C84.1649 8.01473 83.6822 7.83448 83.1029 7.83448C82.4976 7.83448 81.9955 8.01473 81.5967 8.37517C81.1978 8.73561 80.9721 9.26345 80.9208 9.95862H85.1304ZM94.1122 5.22758C95.4772 5.22758 96.5646 5.56871 97.3756 6.25103C98.1999 6.93335 98.7147 7.83448 98.9204 8.95448H95.8308C95.7409 8.5168 95.5351 8.17561 95.2129 7.93103C94.9039 7.67354 94.5117 7.54483 94.0349 7.54483C93.662 7.54483 93.3784 7.62852 93.1853 7.79586C92.9922 7.95034 92.8956 8.17561 92.8956 8.47172C92.8956 8.80646 93.0694 9.05749 93.417 9.22483C93.7779 9.39216 94.3379 9.55956 95.097 9.72689C95.9213 9.92 96.5972 10.1196 97.1246 10.3255C97.6526 10.5186 98.1094 10.8404 98.4956 11.291C98.8818 11.7416 99.0749 12.3466 99.0749 13.1062C99.0749 13.7241 98.9078 14.2713 98.5729 14.7476C98.2385 15.2239 97.7558 15.5972 97.1246 15.8676C96.494 16.1379 95.7475 16.2731 94.8846 16.2731C93.4303 16.2731 92.265 15.9513 91.3894 15.3076C90.5144 14.6639 89.9798 13.7434 89.7867 12.5462H92.9729C93.0248 13.0097 93.2179 13.3637 93.5522 13.6083C93.8998 13.8529 94.3439 13.9752 94.8846 13.9752C95.2581 13.9752 95.5411 13.8915 95.7342 13.7241C95.9273 13.5439 96.0239 13.3122 96.0239 13.029C96.0239 12.6556 95.8441 12.3917 95.4832 12.2372C95.1356 12.0699 94.563 11.8961 93.7646 11.7159C92.9668 11.5485 92.3103 11.3683 91.7949 11.1752C91.2802 10.9821 90.8361 10.6731 90.4625 10.2483C90.0896 9.81059 89.9025 9.21837 89.9025 8.47172C89.9025 7.50621 90.2694 6.72733 91.0032 6.13517C91.737 5.53009 92.7737 5.22758 94.1122 5.22758Z" fill="#1D2C40"/>
</svg>
