<svg width="85" height="29" viewBox="0 0 85 29" fill="none" xmlns="http://www.w3.org/2000/svg">
<g clip-path="url(#clip0_184_2399)">
<path d="M25.4648 18.3183L13.4976 2.14647C13.4297 2.05711 13.3421 1.98466 13.2416 1.93478C13.141 1.8849 13.0303 1.85895 12.9181 1.85895C12.8059 1.85895 12.6952 1.8849 12.5947 1.93478C12.4941 1.98466 12.4065 2.05711 12.3386 2.14647L0.371425 18.3183C0.313754 18.3961 0.272804 18.4849 0.251156 18.5792C0.229509 18.6735 0.227631 18.7713 0.245644 18.8664C0.264247 18.9659 0.303421 19.0605 0.360662 19.144C0.417903 19.2276 0.491949 19.2983 0.578066 19.3515L12.5453 27.0781C12.6591 27.1556 12.7939 27.1964 12.9316 27.1949C13.0722 27.1976 13.2103 27.1568 13.3269 27.0781L25.2761 19.3515C25.3579 19.2975 25.4279 19.2274 25.482 19.1456C25.536 19.0637 25.5729 18.9718 25.5906 18.8754C25.6099 18.7789 25.6087 18.6794 25.587 18.5835C25.5653 18.4875 25.5237 18.3972 25.4648 18.3183ZM13.6324 25.1465V4.716L23.8476 18.5519L13.6324 25.1465Z" fill="#538A1E"/>
</g>
<path d="M32.96 23V20.072L42.596 9.128H32.96V6.2H46.544V9.128L36.908 20.072H46.544V23H32.96ZM53.6966 23.312C52.5926 23.312 51.5846 23.028 50.6726 22.46C49.7686 21.892 49.0446 21.128 48.5006 20.168C47.9646 19.208 47.6966 18.148 47.6966 16.988C47.6966 16.116 47.8526 15.3 48.1646 14.54C48.4766 13.772 48.9046 13.1 49.4486 12.524C50.0006 11.94 50.6406 11.484 51.3686 11.156C52.0966 10.828 52.8726 10.664 53.6966 10.664C54.6326 10.664 55.4886 10.864 56.2646 11.264C57.0486 11.656 57.7126 12.196 58.2566 12.884C58.8006 13.572 59.1966 14.356 59.4446 15.236C59.6926 16.116 59.7486 17.036 59.6126 17.996H50.8406C50.9526 18.444 51.1366 18.848 51.3926 19.208C51.6486 19.56 51.9726 19.844 52.3646 20.06C52.7566 20.268 53.2006 20.376 53.6966 20.384C54.2086 20.392 54.6726 20.272 55.0886 20.024C55.5126 19.768 55.8646 19.424 56.1446 18.992L59.1326 19.688C58.6446 20.752 57.9166 21.624 56.9486 22.304C55.9806 22.976 54.8966 23.312 53.6966 23.312ZM50.7446 15.8H56.6486C56.5606 15.32 56.3726 14.888 56.0846 14.504C55.8046 14.112 55.4566 13.8 55.0406 13.568C54.6246 13.336 54.1766 13.22 53.6966 13.22C53.2166 13.22 52.7726 13.336 52.3646 13.568C51.9566 13.792 51.6086 14.1 51.3206 14.492C51.0406 14.876 50.8486 15.312 50.7446 15.8ZM61.3775 23V5H64.3055V23H61.3775ZM67.19 11H70.118V23H67.19V11ZM68.678 9.452C68.246 9.452 67.882 9.312 67.586 9.032C67.29 8.744 67.142 8.384 67.142 7.952C67.142 7.528 67.29 7.172 67.586 6.884C67.882 6.596 68.242 6.452 68.666 6.452C69.09 6.452 69.446 6.596 69.734 6.884C70.03 7.172 70.178 7.528 70.178 7.952C70.178 8.384 70.034 8.744 69.746 9.032C69.458 9.312 69.102 9.452 68.678 9.452ZM78.0013 23.312C76.8973 23.312 75.8893 23.028 74.9773 22.46C74.0733 21.892 73.3493 21.132 72.8053 20.18C72.2693 19.22 72.0013 18.16 72.0013 17C72.0013 16.12 72.1573 15.3 72.4693 14.54C72.7813 13.772 73.2093 13.1 73.7533 12.524C74.3053 11.94 74.9453 11.484 75.6733 11.156C76.4013 10.828 77.1773 10.664 78.0013 10.664C79.1053 10.664 80.1093 10.948 81.0133 11.516C81.9253 12.084 82.6493 12.848 83.1853 13.808C83.7293 14.768 84.0013 15.832 84.0013 17C84.0013 17.872 83.8453 18.688 83.5333 19.448C83.2213 20.208 82.7893 20.88 82.2373 21.464C81.6933 22.04 81.0573 22.492 80.3293 22.82C79.6093 23.148 78.8333 23.312 78.0013 23.312ZM78.0013 20.384C78.5853 20.384 79.1093 20.228 79.5733 19.916C80.0373 19.604 80.4013 19.192 80.6653 18.68C80.9373 18.168 81.0733 17.608 81.0733 17C81.0733 16.376 80.9333 15.808 80.6533 15.296C80.3813 14.776 80.0093 14.364 79.5373 14.06C79.0733 13.748 78.5613 13.592 78.0013 13.592C77.4253 13.592 76.9053 13.748 76.4413 14.06C75.9773 14.372 75.6093 14.788 75.3373 15.308C75.0653 15.828 74.9293 16.392 74.9293 17C74.9293 17.632 75.0693 18.204 75.3493 18.716C75.6293 19.228 76.0013 19.636 76.4653 19.94C76.9373 20.236 77.4493 20.384 78.0013 20.384Z" fill="#538A1E"/>
<defs>
<clipPath id="clip0_184_2399">
<rect width="26" height="26" fill="white" transform="translate(0 1.5)"/>
</clipPath>
</defs>
</svg>
